<svg id="visual" viewBox="0 0 900 600" width="900" height="600" xmlns="http://www.w3.org/2000/svg" xmlns:xlink="http://www.w3.org/1999/xlink" version="1.1"><rect x="0" y="0" width="900" height="600" fill="#fff"></rect><path d="M143 0L140.2 10C137.3 20 131.7 40 130 60C128.3 80 130.7 100 130.5 120C130.3 140 127.7 160 127 180C126.3 200 127.7 220 130.3 240C133 260 137 280 138.3 300C139.7 320 138.3 340 136.8 360C135.3 380 133.7 400 135 420C136.3 440 140.7 460 142.7 480C144.7 500 144.3 520 142.8 540C141.3 560 138.7 580 137.3 590L136 600L0 600L0 590C0 580 0 560 0 540C0 520 0 500 0 480C0 460 0 440 0 420C0 400 0 380 0 360C0 340 0 320 0 300C0 280 0 260 0 240C0 220 0 200 0 180C0 160 0 140 0 120C0 100 0 80 0 60C0 40 0 20 0 10L0 0Z" fill="#f0e5ff" stroke-linecap="round" stroke-linejoin="miter"></path></svg>