<svg id="visual" viewBox="0 0 900 600" width="900" height="600" xmlns="http://www.w3.org/2000/svg" xmlns:xlink="http://www.w3.org/1999/xlink" version="1.1"><rect x="0" y="0" width="900" height="600" fill="#fff"></rect><path d="M759 600L761.8 590C764.7 580 770.3 560 772 540C773.7 520 771.3 500 771.5 480C771.7 460 774.3 440 775 420C775.7 400 774.3 380 771.7 360C769 340 765 320 763.7 300C762.3 280 763.7 260 765.2 240C766.7 220 768.3 200 767 180C765.7 160 761.3 140 759.3 120C757.3 100 757.7 80 759.2 60C760.7 40 763.3 20 764.7 10L766 0L900 0L900 10C900 20 900 40 900 60C900 80 900 100 900 120C900 140 900 160 900 180C900 200 900 220 900 240C900 260 900 280 900 300C900 320 900 340 900 360C900 380 900 400 900 420C900 440 900 460 900 480C900 500 900 520 900 540C900 560 900 580 900 590L900 600Z" fill="#f0e5ff" stroke-linecap="round" stroke-linejoin="miter"></path></svg>